<mxfile host="app.diagrams.net" modified="2023-05-01T19:42:31.308Z" agent="Mozilla/5.0 (Windows NT 10.0; Win64; x64) AppleWebKit/537.36 (KHTML, like Gecko) Chrome/112.0.0.0 Safari/537.36" etag="Y6li-XCMde5pEaynb-jc" version="21.2.3" type="google">
  <diagram name="Page-1" id="omfFdbYsvFKmf9MiwcRR">
    <mxGraphModel dx="1050" dy="541" grid="1" gridSize="10" guides="1" tooltips="1" connect="1" arrows="1" fold="1" page="1" pageScale="1" pageWidth="583" pageHeight="827" math="0" shadow="0">
      <root>
        <mxCell id="0" />
        <mxCell id="1" parent="0" />
        <mxCell id="73qoLou4ZsRdhJVbD8Go-50" value="" style="rounded=0;whiteSpace=wrap;html=1;fillColor=default;gradientColor=none;strokeColor=#020301;" parent="1" vertex="1">
          <mxGeometry x="250" y="30" width="630" height="530" as="geometry" />
        </mxCell>
        <mxCell id="A8w1k4Tba6P9RzqjQkp6-17" style="rounded=0;orthogonalLoop=1;jettySize=auto;html=1;entryX=0.5;entryY=0;entryDx=0;entryDy=0;edgeStyle=orthogonalEdgeStyle;" parent="1" source="73qoLou4ZsRdhJVbD8Go-1" target="A8w1k4Tba6P9RzqjQkp6-12" edge="1">
          <mxGeometry relative="1" as="geometry" />
        </mxCell>
        <mxCell id="73qoLou4ZsRdhJVbD8Go-1" value="addProduct" style="ellipse;whiteSpace=wrap;html=1;labelBackgroundColor=none;labelBorderColor=none;fillColor=#e1d5e7;strokeColor=#9673a6;" parent="1" vertex="1">
          <mxGeometry x="324" y="90" width="127" height="40" as="geometry" />
        </mxCell>
        <mxCell id="A8w1k4Tba6P9RzqjQkp6-18" style="edgeStyle=orthogonalEdgeStyle;rounded=0;orthogonalLoop=1;jettySize=auto;html=1;entryX=0;entryY=0.5;entryDx=0;entryDy=0;" parent="1" source="73qoLou4ZsRdhJVbD8Go-2" target="A8w1k4Tba6P9RzqjQkp6-12" edge="1">
          <mxGeometry relative="1" as="geometry">
            <Array as="points">
              <mxPoint x="500" y="180" />
              <mxPoint x="500" y="220" />
            </Array>
          </mxGeometry>
        </mxCell>
        <mxCell id="73qoLou4ZsRdhJVbD8Go-2" value="addSeller" style="ellipse;whiteSpace=wrap;html=1;fillColor=#e1d5e7;strokeColor=#9673a6;labelBackgroundColor=none;labelBorderColor=none;" parent="1" vertex="1">
          <mxGeometry x="324" y="160" width="127" height="40" as="geometry" />
        </mxCell>
        <mxCell id="A8w1k4Tba6P9RzqjQkp6-19" style="edgeStyle=orthogonalEdgeStyle;rounded=0;orthogonalLoop=1;jettySize=auto;html=1;" parent="1" source="73qoLou4ZsRdhJVbD8Go-4" target="A8w1k4Tba6P9RzqjQkp6-12" edge="1">
          <mxGeometry relative="1" as="geometry">
            <Array as="points">
              <mxPoint x="650" y="260" />
            </Array>
          </mxGeometry>
        </mxCell>
        <mxCell id="73qoLou4ZsRdhJVbD8Go-4" value="sellToSeller" style="ellipse;whiteSpace=wrap;html=1;fillColor=#e1d5e7;strokeColor=#9673a6;labelBackgroundColor=none;labelBorderColor=none;" parent="1" vertex="1">
          <mxGeometry x="324" y="230" width="127" height="40" as="geometry" />
        </mxCell>
        <mxCell id="73qoLou4ZsRdhJVbD8Go-5" value="getSellers" style="ellipse;whiteSpace=wrap;html=1;fillColor=#e1d5e7;strokeColor=#9673a6;labelBackgroundColor=none;labelBorderColor=none;" parent="1" vertex="1">
          <mxGeometry x="324" y="300" width="127" height="40" as="geometry" />
        </mxCell>
        <mxCell id="A8w1k4Tba6P9RzqjQkp6-20" style="edgeStyle=orthogonalEdgeStyle;rounded=0;orthogonalLoop=1;jettySize=auto;html=1;curved=1;" parent="1" source="73qoLou4ZsRdhJVbD8Go-6" target="A8w1k4Tba6P9RzqjQkp6-12" edge="1">
          <mxGeometry relative="1" as="geometry">
            <Array as="points">
              <mxPoint x="520" y="430" />
              <mxPoint x="520" y="460" />
              <mxPoint x="691" y="460" />
            </Array>
          </mxGeometry>
        </mxCell>
        <mxCell id="73qoLou4ZsRdhJVbD8Go-6" value="sellToConsumer" style="ellipse;whiteSpace=wrap;html=1;fillColor=#fff2cc;strokeColor=#d6b656;labelBackgroundColor=none;labelBorderColor=none;" parent="1" vertex="1">
          <mxGeometry x="320" y="410" width="127" height="40" as="geometry" />
        </mxCell>
        <mxCell id="A8w1k4Tba6P9RzqjQkp6-21" style="edgeStyle=orthogonalEdgeStyle;rounded=0;orthogonalLoop=1;jettySize=auto;html=1;" parent="1" source="73qoLou4ZsRdhJVbD8Go-7" target="A8w1k4Tba6P9RzqjQkp6-12" edge="1">
          <mxGeometry relative="1" as="geometry">
            <Array as="points">
              <mxPoint x="774" y="340" />
              <mxPoint x="710" y="340" />
            </Array>
          </mxGeometry>
        </mxCell>
        <mxCell id="73qoLou4ZsRdhJVbD8Go-7" value="verifyProduct" style="ellipse;whiteSpace=wrap;html=1;fillColor=#d5e8d4;strokeColor=#82b366;" parent="1" vertex="1">
          <mxGeometry x="710" y="440" width="127" height="40" as="geometry" />
        </mxCell>
        <mxCell id="73qoLou4ZsRdhJVbD8Go-8" value="getProducts" style="ellipse;whiteSpace=wrap;html=1;fillColor=#fff2cc;strokeColor=#d6b656;labelBackgroundColor=none;labelBorderColor=none;" parent="1" vertex="1">
          <mxGeometry x="310" y="465" width="127" height="40" as="geometry" />
        </mxCell>
        <mxCell id="73qoLou4ZsRdhJVbD8Go-9" value="getPurchaseHistory" style="ellipse;whiteSpace=wrap;html=1;fillColor=#d5e8d4;strokeColor=#82b366;" parent="1" vertex="1">
          <mxGeometry x="730" y="355" width="127" height="40" as="geometry" />
        </mxCell>
        <mxCell id="73qoLou4ZsRdhJVbD8Go-10" value="fetchQRcode" style="ellipse;whiteSpace=wrap;html=1;fillColor=#ffe6cc;strokeColor=#d79b00;" parent="1" vertex="1">
          <mxGeometry x="540" y="315" width="127" height="40" as="geometry" />
        </mxCell>
        <mxCell id="73qoLou4ZsRdhJVbD8Go-11" value="&lt;font color=&quot;#000000&quot;&gt;Manufacturer&lt;br&gt;0xC0B40c....e7119F16d6A0&lt;br&gt;&lt;/font&gt;" style="shape=umlActor;verticalLabelPosition=bottom;verticalAlign=top;html=1;fillColor=#76608a;fontColor=#ffffff;strokeColor=#432D57;" parent="1" vertex="1">
          <mxGeometry x="110" y="110" width="30" height="70" as="geometry" />
        </mxCell>
        <mxCell id="73qoLou4ZsRdhJVbD8Go-15" value="&lt;font color=&quot;#000000&quot;&gt;Seller&lt;/font&gt;&lt;br style=&quot;border-color: var(--border-color); color: rgb(0, 0, 0);&quot;&gt;&lt;span style=&quot;color: rgb(0, 0, 0);&quot;&gt;0x10240c....e7119F1AE230&lt;/span&gt;&lt;font color=&quot;#000000&quot;&gt;&lt;br&gt;&lt;/font&gt;" style="shape=umlActor;verticalLabelPosition=bottom;verticalAlign=top;html=1;fillColor=#e3c800;strokeColor=#B09500;fontColor=#000000;" parent="1" vertex="1">
          <mxGeometry x="130" y="395" width="30" height="70" as="geometry" />
        </mxCell>
        <mxCell id="73qoLou4ZsRdhJVbD8Go-33" value="" style="endArrow=none;html=1;rounded=0;exitX=0.958;exitY=0.22;exitDx=0;exitDy=0;exitPerimeter=0;entryX=0;entryY=0.3333333333333333;entryDx=0;entryDy=0;entryPerimeter=0;" parent="1" source="73qoLou4ZsRdhJVbD8Go-7" target="73qoLou4ZsRdhJVbD8Go-16" edge="1">
          <mxGeometry width="50" height="50" relative="1" as="geometry">
            <mxPoint x="880" y="440" as="sourcePoint" />
            <mxPoint x="950" y="340" as="targetPoint" />
          </mxGeometry>
        </mxCell>
        <mxCell id="73qoLou4ZsRdhJVbD8Go-35" value="" style="endArrow=none;html=1;rounded=0;exitX=0.5;exitY=0.5;exitDx=0;exitDy=0;exitPerimeter=0;" parent="1" source="73qoLou4ZsRdhJVbD8Go-11" edge="1">
          <mxGeometry width="50" height="50" relative="1" as="geometry">
            <mxPoint x="200" y="210" as="sourcePoint" />
            <mxPoint x="320" y="180" as="targetPoint" />
          </mxGeometry>
        </mxCell>
        <mxCell id="73qoLou4ZsRdhJVbD8Go-36" value="" style="endArrow=none;html=1;rounded=0;entryX=0;entryY=0.5;entryDx=0;entryDy=0;" parent="1" target="73qoLou4ZsRdhJVbD8Go-5" edge="1">
          <mxGeometry width="50" height="50" relative="1" as="geometry">
            <mxPoint x="200" y="230" as="sourcePoint" />
            <mxPoint x="310" y="330" as="targetPoint" />
          </mxGeometry>
        </mxCell>
        <mxCell id="73qoLou4ZsRdhJVbD8Go-37" value="" style="endArrow=none;html=1;rounded=0;exitX=0.5;exitY=0.5;exitDx=0;exitDy=0;exitPerimeter=0;" parent="1" source="73qoLou4ZsRdhJVbD8Go-11" edge="1">
          <mxGeometry width="50" height="50" relative="1" as="geometry">
            <mxPoint x="150" y="150" as="sourcePoint" />
            <mxPoint x="320" y="250" as="targetPoint" />
          </mxGeometry>
        </mxCell>
        <mxCell id="73qoLou4ZsRdhJVbD8Go-39" value="" style="endArrow=none;html=1;rounded=0;entryX=0;entryY=0.5;entryDx=0;entryDy=0;exitX=0.613;exitY=0.411;exitDx=0;exitDy=0;exitPerimeter=0;" parent="1" source="73qoLou4ZsRdhJVbD8Go-15" target="73qoLou4ZsRdhJVbD8Go-8" edge="1">
          <mxGeometry width="50" height="50" relative="1" as="geometry">
            <mxPoint x="200" y="490" as="sourcePoint" />
            <mxPoint x="320" y="570" as="targetPoint" />
          </mxGeometry>
        </mxCell>
        <mxCell id="73qoLou4ZsRdhJVbD8Go-40" value="&amp;lt;&amp;lt;include&amp;gt;&amp;gt;" style="html=1;verticalAlign=bottom;labelBackgroundColor=none;endArrow=open;endFill=0;dashed=1;rounded=0;entryX=0;entryY=0.5;entryDx=0;entryDy=0;" parent="1" source="73qoLou4ZsRdhJVbD8Go-4" target="73qoLou4ZsRdhJVbD8Go-10" edge="1">
          <mxGeometry width="160" relative="1" as="geometry">
            <mxPoint x="470" y="255" as="sourcePoint" />
            <mxPoint x="600" y="280" as="targetPoint" />
          </mxGeometry>
        </mxCell>
        <mxCell id="73qoLou4ZsRdhJVbD8Go-41" value="&amp;lt;&amp;lt;include&amp;gt;&amp;gt;" style="html=1;verticalAlign=bottom;labelBackgroundColor=none;endArrow=open;endFill=0;dashed=1;rounded=0;exitX=0.951;exitY=0.2;exitDx=0;exitDy=0;exitPerimeter=0;entryX=0;entryY=1;entryDx=0;entryDy=0;" parent="1" source="73qoLou4ZsRdhJVbD8Go-6" target="73qoLou4ZsRdhJVbD8Go-10" edge="1">
          <mxGeometry width="160" relative="1" as="geometry">
            <mxPoint x="470" y="470" as="sourcePoint" />
            <mxPoint x="580" y="330" as="targetPoint" />
          </mxGeometry>
        </mxCell>
        <mxCell id="73qoLou4ZsRdhJVbD8Go-44" value="&amp;lt;&amp;lt;include&amp;gt;&amp;gt;" style="html=1;verticalAlign=bottom;labelBackgroundColor=none;endArrow=open;endFill=0;dashed=1;rounded=0;entryX=1;entryY=0.5;entryDx=0;entryDy=0;exitX=0.013;exitY=0.675;exitDx=0;exitDy=0;exitPerimeter=0;" parent="1" source="73qoLou4ZsRdhJVbD8Go-7" target="73qoLou4ZsRdhJVbD8Go-10" edge="1">
          <mxGeometry width="160" relative="1" as="geometry">
            <mxPoint x="730" y="450" as="sourcePoint" />
            <mxPoint x="770" y="320" as="targetPoint" />
          </mxGeometry>
        </mxCell>
        <mxCell id="73qoLou4ZsRdhJVbD8Go-46" value="" style="endArrow=none;html=1;rounded=0;entryX=0.049;entryY=0.82;entryDx=0;entryDy=0;entryPerimeter=0;exitX=0.5;exitY=0.5;exitDx=0;exitDy=0;exitPerimeter=0;" parent="1" source="73qoLou4ZsRdhJVbD8Go-11" target="73qoLou4ZsRdhJVbD8Go-1" edge="1">
          <mxGeometry width="50" height="50" relative="1" as="geometry">
            <mxPoint x="200" y="200" as="sourcePoint" />
            <mxPoint x="320" y="120" as="targetPoint" />
          </mxGeometry>
        </mxCell>
        <mxCell id="73qoLou4ZsRdhJVbD8Go-49" value="AUTHENTIFY" style="text;html=1;align=center;verticalAlign=middle;resizable=0;points=[];autosize=1;strokeColor=none;fillColor=none;fontStyle=1;fontSize=16;horizontal=1;" parent="1" vertex="1">
          <mxGeometry x="490" y="40" width="120" height="30" as="geometry" />
        </mxCell>
        <mxCell id="73qoLou4ZsRdhJVbD8Go-60" value="" style="endArrow=none;html=1;rounded=0;entryX=0;entryY=0.5;entryDx=0;entryDy=0;exitX=0.64;exitY=0.389;exitDx=0;exitDy=0;exitPerimeter=0;" parent="1" source="73qoLou4ZsRdhJVbD8Go-15" target="73qoLou4ZsRdhJVbD8Go-6" edge="1">
          <mxGeometry width="50" height="50" relative="1" as="geometry">
            <mxPoint x="200" y="470" as="sourcePoint" />
            <mxPoint x="330" y="440" as="targetPoint" />
          </mxGeometry>
        </mxCell>
        <mxCell id="73qoLou4ZsRdhJVbD8Go-61" value="" style="endArrow=none;html=1;rounded=0;exitX=1;exitY=1;exitDx=0;exitDy=0;entryX=0;entryY=0.3333333333333333;entryDx=0;entryDy=0;entryPerimeter=0;" parent="1" source="73qoLou4ZsRdhJVbD8Go-9" target="73qoLou4ZsRdhJVbD8Go-16" edge="1">
          <mxGeometry width="50" height="50" relative="1" as="geometry">
            <mxPoint x="828" y="234" as="sourcePoint" />
            <mxPoint x="950" y="320" as="targetPoint" />
            <Array as="points" />
          </mxGeometry>
        </mxCell>
        <mxCell id="73qoLou4ZsRdhJVbD8Go-16" value="&lt;font color=&quot;#000000&quot;&gt;Consumer&lt;/font&gt;" style="shape=umlActor;verticalLabelPosition=bottom;verticalAlign=top;html=1;fillColor=#008a00;strokeColor=#005700;fontColor=#ffffff;" parent="1" vertex="1">
          <mxGeometry x="950" y="414" width="30" height="70" as="geometry" />
        </mxCell>
        <mxCell id="ySx88KUzZksB3rPt9Q0a-1" value="generateQRcode" style="ellipse;whiteSpace=wrap;html=1;fillColor=#ffe6cc;strokeColor=#d79b00;" parent="1" vertex="1">
          <mxGeometry x="500" y="140" width="127" height="40" as="geometry" />
        </mxCell>
        <mxCell id="ySx88KUzZksB3rPt9Q0a-3" value="&amp;lt;&amp;lt;include&amp;gt;&amp;gt;" style="html=1;verticalAlign=bottom;labelBackgroundColor=none;endArrow=open;endFill=0;dashed=1;rounded=0;exitX=0.925;exitY=0.847;exitDx=0;exitDy=0;exitPerimeter=0;entryX=0;entryY=0.5;entryDx=0;entryDy=0;" parent="1" source="73qoLou4ZsRdhJVbD8Go-1" target="ySx88KUzZksB3rPt9Q0a-1" edge="1">
          <mxGeometry width="160" relative="1" as="geometry">
            <mxPoint x="460" y="130" as="sourcePoint" />
            <mxPoint x="620" y="140" as="targetPoint" />
          </mxGeometry>
        </mxCell>
        <mxCell id="A8w1k4Tba6P9RzqjQkp6-10" style="rounded=0;orthogonalLoop=1;jettySize=auto;html=1;entryX=1;entryY=0.5;entryDx=0;entryDy=0;endArrow=none;endFill=0;jumpStyle=line;" parent="1" source="A8w1k4Tba6P9RzqjQkp6-5" target="A8w1k4Tba6P9RzqjQkp6-7" edge="1">
          <mxGeometry relative="1" as="geometry" />
        </mxCell>
        <mxCell id="A8w1k4Tba6P9RzqjQkp6-5" value="&lt;font color=&quot;#000000&quot;&gt;Contract&lt;br&gt;0xA0C40c....e7119F16d550&lt;br&gt;&lt;/font&gt;" style="shape=umlActor;verticalLabelPosition=bottom;verticalAlign=top;html=1;fillColor=#e51400;fontColor=#ffffff;strokeColor=#B20000;" parent="1" vertex="1">
          <mxGeometry x="920" y="150" width="30" height="70" as="geometry" />
        </mxCell>
        <mxCell id="A8w1k4Tba6P9RzqjQkp6-7" value="web3 Instance&amp;nbsp;" style="ellipse;whiteSpace=wrap;html=1;labelBackgroundColor=none;labelBorderColor=none;fillColor=#f8cecc;strokeColor=#b85450;" parent="1" vertex="1">
          <mxGeometry x="730" y="90" width="127" height="40" as="geometry" />
        </mxCell>
        <mxCell id="A8w1k4Tba6P9RzqjQkp6-12" value="generateTxn" style="ellipse;whiteSpace=wrap;html=1;labelBackgroundColor=none;labelBorderColor=none;fillColor=#dae8fc;strokeColor=#6c8ebf;" parent="1" vertex="1">
          <mxGeometry x="627" y="200" width="127" height="40" as="geometry" />
        </mxCell>
        <mxCell id="A8w1k4Tba6P9RzqjQkp6-14" value="&amp;lt;&amp;lt;include&amp;gt;&amp;gt;" style="html=1;verticalAlign=bottom;labelBackgroundColor=none;endArrow=open;endFill=0;dashed=1;rounded=0;" parent="1" source="A8w1k4Tba6P9RzqjQkp6-12" target="A8w1k4Tba6P9RzqjQkp6-7" edge="1">
          <mxGeometry width="160" relative="1" as="geometry">
            <mxPoint x="451" y="134" as="sourcePoint" />
            <mxPoint x="510" y="170" as="targetPoint" />
          </mxGeometry>
        </mxCell>
      </root>
    </mxGraphModel>
  </diagram>
</mxfile>
